<svg data-v-423bf9ae="" xmlns="http://www.w3.org/2000/svg" viewBox="0 0 333 107" class="iconLeft"><!----><!----><!----><g data-v-423bf9ae="" id="e50dd974-d070-4c4a-9050-95a28893e6e4" fill="white" transform="matrix(4.310345099268116,0,0,4.310345099268116,104.2391411452788,10.738335270943942)"><path d="M4.10 9.09C4.40 9.09 4.56 8.81 4.56 8.57C4.56 8.18 4.09 7.88 3.46 7.88C1.58 7.88-0.46 10.47-0.46 12.10C-0.46 12.96 0.11 13.30 0.59 13.30C1.27 13.30 2.06 12.57 2.80 11.51C2.30 12.94 1.97 14.81 1.97 15.78C1.97 16.58 2.20 16.80 2.46 16.80C3.05 16.80 3.50 15.71 3.50 14.39C3.50 13.82 3.42 13.30 3.26 12.81C4.13 12.73 5.18 12.19 5.80 10.78L5.63 10.63C4.91 11.98 4.09 12.40 3.29 12.47C3.67 10.77 4.52 9.94 4.52 9.48C4.52 9.37 4.47 9.23 4.24 9.23C4.06 9.23 3.84 9.32 3.63 9.66C2.76 11.05 1.75 12.63 1.01 12.63C0.71 12.63 0.52 12.38 0.52 11.96C0.52 10.89 1.76 8.32 3.30 8.32C3.88 8.32 4.10 8.68 4.10 9.09ZM3.19 14.27C3.19 15.09 3.05 16.03 2.84 16.03C2.76 16.03 2.73 15.88 2.73 15.64C2.73 15.13 2.86 14.21 3.09 13.22C3.16 13.55 3.19 13.89 3.19 14.27ZM9.24 9.09C8.71 10.14 7.56 12.74 6.69 12.74C6.23 12.74 6.19 12.04 6.19 11.80C6.19 10.86 6.82 9.46 7.13 8.99C6.97 8.82 6.71 8.71 6.61 8.71C6.19 8.71 5.38 10.82 5.38 11.89C5.38 12.64 5.80 13.30 6.43 13.30C7.13 13.30 7.74 12.49 8.26 11.56C8.20 11.80 8.16 12.04 8.16 12.26C8.16 12.84 8.40 13.30 9.14 13.30C10.14 13.30 11.35 12.25 11.96 10.74L11.77 10.61C11.09 12.05 10.02 12.88 9.44 12.88C9.10 12.88 8.97 12.66 8.97 12.32C8.97 11.38 9.91 9.60 9.91 9.45C9.91 9.21 9.39 9.11 9.24 9.09ZM13.47 8.13C12.52 8.13 11.45 11.00 11.45 12.07C11.45 12.73 11.80 13.24 12.53 13.24C13.62 13.24 14.74 12.36 15.29 10.75L15.16 10.61C14.36 12.21 13.64 12.75 13.01 12.75C12.54 12.75 12.32 12.59 12.32 11.91C12.32 10.60 13.78 8.90 13.78 8.44C13.78 8.25 13.64 8.13 13.47 8.13ZM14.21 6.83C14.66 6.83 15.12 6.43 15.12 6.08C15.12 5.75 14.94 5.64 14.66 5.64C14.21 5.64 13.64 5.98 13.64 6.37C13.64 6.69 13.90 6.83 14.21 6.83ZM19.75 10.78L19.60 10.61C19.33 11.41 18.75 12.05 18.05 12.59C17.88 12.12 17.56 11.70 17.07 11.33C17.91 10.91 18.72 10.11 18.72 9.09C18.72 8.39 18.19 7.94 17.56 7.94C16.28 7.94 15.68 9.20 15.06 10.86L15.23 11.00C15.88 9.63 16.42 8.47 17.36 8.47C17.72 8.47 17.91 8.79 17.91 9.21C17.91 9.94 17.36 10.99 16.38 11.27C17.11 11.84 17.35 12.38 17.35 13.05C15.72 14.13 13.92 14.88 13.92 16.09C13.92 16.60 14.27 16.80 14.84 16.80C16.55 16.80 18.19 15.01 18.19 13.31C18.19 13.16 18.17 12.99 18.13 12.85C18.87 12.29 19.49 11.62 19.75 10.78ZM14.74 16.39C14.49 16.39 14.31 16.25 14.31 15.93C14.31 14.99 15.85 14.32 17.33 13.37C17.15 15.30 15.43 16.39 14.74 16.39ZM24.21 10.78L24.05 10.61C23.79 11.41 23.20 12.05 22.50 12.59C22.33 12.12 22.01 11.70 21.52 11.33C22.36 10.91 23.17 10.11 23.17 9.09C23.17 8.39 22.64 7.94 22.01 7.94C20.73 7.94 20.13 9.20 19.52 10.86L19.68 11.00C20.33 9.63 20.87 8.47 21.81 8.47C22.18 8.47 22.36 8.79 22.36 9.21C22.36 9.94 21.81 10.99 20.83 11.27C21.56 11.84 21.80 12.38 21.80 13.05C20.17 14.13 18.37 14.88 18.37 16.09C18.37 16.60 18.72 16.80 19.29 16.80C21 16.80 22.64 15.01 22.64 13.31C22.64 13.16 22.62 12.99 22.58 12.85C23.32 12.29 23.94 11.62 24.21 10.78ZM19.19 16.39C18.94 16.39 18.76 16.25 18.76 15.93C18.76 14.99 20.30 14.32 21.78 13.37C21.60 15.30 19.88 16.39 19.19 16.39ZM28.31 9.07C28.20 9.04 28.10 9.03 28.01 9.03C27.55 9.03 27.36 9.48 27.30 9.74C27.26 9.97 27.22 10.18 27.16 10.39C26.60 11.31 25.83 12.18 25.30 12.18C24.92 12.18 24.79 11.96 24.79 11.62C24.79 10.86 25.40 9.35 25.72 8.88C25.72 8.71 25.21 8.55 25.10 8.55C24.70 8.55 23.87 10.57 23.87 11.61C23.87 12.39 24.44 12.74 24.99 12.74C25.75 12.74 26.43 11.94 27.03 10.96C26.78 11.98 26.52 12.84 26.25 13.52C24.84 14.24 23.53 14.87 23.53 16.06C23.53 16.55 23.94 16.80 24.42 16.80C25.38 16.80 26.33 15.16 27.06 13.37C28.10 12.89 29.29 12.10 29.71 10.75L29.53 10.61C28.99 11.90 28.08 12.66 27.22 12.99C27.87 11.30 28.31 9.53 28.31 9.07ZM24.35 16.35C24.07 16.35 23.97 16.09 23.97 15.93C23.97 15.01 24.95 14.48 26.11 13.86C25.35 15.71 24.63 16.35 24.35 16.35ZM39.14 10.67C38.78 11.44 38.43 11.70 38.04 11.70C37.45 11.70 37.38 11.10 37.38 10.64C37.38 9.39 37.87 9.13 37.87 8.76C37.87 8.57 37.72 8.23 37.37 8.23C37.02 8.23 36.76 8.55 36.72 9.81C36.13 11.12 35.10 12.88 34.41 12.88C34.16 12.88 34.09 12.64 34.09 12.10C34.09 11.37 34.22 10.46 34.22 9.84C34.22 9.49 34.17 9.39 33.85 9.39C33.45 9.39 33.43 9.55 33.40 10.05C33.33 11.35 33.32 11.86 33.32 11.89C33.32 12.80 33.50 13.43 34.09 13.43C34.99 13.43 36.08 11.98 36.76 10.63C36.89 11.54 37.32 11.98 37.94 11.98C38.39 11.98 38.92 11.75 39.33 10.81ZM40.84 8.13C39.89 8.13 38.82 11.00 38.82 12.07C38.82 12.73 39.17 13.24 39.90 13.24C40.99 13.24 42.11 12.36 42.66 10.75L42.53 10.61C41.73 12.21 41.01 12.75 40.38 12.75C39.91 12.75 39.69 12.59 39.69 11.91C39.69 10.60 41.15 8.90 41.15 8.44C41.15 8.25 41.01 8.13 40.84 8.13ZM41.58 6.83C42.03 6.83 42.49 6.43 42.49 6.08C42.49 5.75 42.31 5.64 42.03 5.64C41.58 5.64 41.01 5.98 41.01 6.37C41.01 6.69 41.27 6.83 41.58 6.83ZM43.75 9.10C45.40 8.11 46.94 5.07 46.94 3.77C46.94 3.37 46.80 2.88 46.49 2.88C45.35 2.88 42.14 9.32 42.14 12.14C42.14 13.22 42.62 13.90 43.58 13.90C44.56 13.90 45.30 13.20 45.81 12.35C45.95 12.38 46.10 12.39 46.26 12.39C46.97 12.39 47.73 12.08 48.26 10.79L48.09 10.61C47.77 11.26 47.29 12.14 46.30 12.14C46.17 12.14 46.05 12.12 45.93 12.10C46.24 11.48 46.42 10.81 46.42 10.19C46.42 9.35 46.07 8.90 45.54 8.90C44.91 8.90 44.37 9.49 44.37 10.39C44.37 11.09 44.70 11.84 45.39 12.19C45.02 12.88 44.38 13.37 43.85 13.37C43.29 13.37 43.08 12.82 43.08 12.05C43.08 10.88 43.58 9.41 43.75 9.10ZM46.41 4.02C46.45 4.02 46.47 4.05 46.47 4.13C46.47 4.84 45.19 7.52 43.90 8.55C44.55 6.41 46.10 4.02 46.41 4.02ZM44.86 10.46C44.86 9.88 45.11 9.45 45.39 9.45C45.65 9.45 45.85 9.86 45.85 10.50C45.85 11.00 45.72 11.49 45.53 11.91C45.04 11.59 44.86 10.96 44.86 10.46ZM52.04 8.69C52.04 8.01 51.60 7.84 51.17 7.84C49.52 7.84 47.61 10.21 47.61 11.87C47.61 12.78 48.19 13.50 49.32 13.50C50.71 13.50 52.16 12.42 52.92 10.74L52.75 10.61C52.05 11.96 50.81 13.09 49.62 13.09C48.75 13.09 48.51 12.49 48.51 11.91C48.51 11.77 48.52 11.59 48.57 11.41C50.16 11.26 52.04 10.12 52.04 8.69ZM51.13 8.27C51.37 8.27 51.42 8.39 51.42 8.60C51.42 9.80 49.63 10.79 48.64 11.14C49.01 9.81 50.23 8.27 51.13 8.27Z"></path></g><!----><g data-v-423bf9ae="" id="5d5facd0-3b9e-4d32-a39c-442044076266" transform="matrix(1.0868111504448785,0,0,1.0868111504448785,-13.255261890115804,-0.23894260335429607)" stroke="none" fill="white"><g clip-rule="evenodd"><path d="M12.983 10.59l17.018 88.223-5.872-59.049 29.021-1.892-.054-9.883L64.549 1 53.622 18.977z"></path><path d="M59.389 54.548l5.16-53.541-8.74 39.716-19.612 1.045 1.57 20.462-7.766 36.583 12.057-39.899z"></path><path d="M62.8 67.182l.549-10.453-15.979 3.755-.032 11.797-17.337 26.532 21.68-27.616zM65.711 62.394l14.841-4.731 1.509-12.532-15.899 2.095zM72.07 44.502l10.988-1.417 1.581-10.278-8.079-.373L64.549 1l8.43 30.967z"></path><path d="M87.413 31.294l1.256-9.506-9.544-2.694L64.549 1l14.483 22.437-.422 7z"></path></g></g><!----></svg>